REM DIRINDEX 1\3,1\2\4,1\2\5,1\2\6
REM DIRNAME folder01,folder02,folder03,folder04,folder05,folder06
TITLE ""
FILE "042.mp3" MP3
  TRACK 01 AUDIO
    TITLE "4:cjc137_1720"
    INDEX 01 00:00:00
  TRACK 02 AUDIO
    TITLE "0:"
    INDEX 01 00:00:72
  TRACK 03 AUDIO
    TITLE "6:cjc137_1721"
    INDEX 01 00:01:03
  TRACK 04 AUDIO
    TITLE "0:"
    INDEX 01 00:02:02
  TRACK 05 AUDIO
    TITLE "5:cjc137_1722"
    INDEX 01 00:02:08
  TRACK 06 AUDIO
    TITLE "0:"
    INDEX 01 00:03:04
  TRACK 07 AUDIO
    TITLE "4:cjc137_1723"
    INDEX 01 00:04:11
  TRACK 08 AUDIO
    TITLE "0:"
    INDEX 01 00:05:22
  TRACK 09 AUDIO
    TITLE "6:cjc137_1724"
    INDEX 01 00:05:26
  TRACK 10 AUDIO
    TITLE "0:"
    INDEX 01 00:06:45
  TRACK 11 AUDIO
    TITLE "5:cjc137_1725"
    INDEX 01 00:06:49
  TRACK 12 AUDIO
    TITLE "0:"
    INDEX 01 00:07:60
  TRACK 13 AUDIO
    TITLE "4:cjc137_1726"
    INDEX 01 00:08:64
  TRACK 14 AUDIO
    TITLE "0:"
    INDEX 01 00:09:61
  TRACK 15 AUDIO
    TITLE "6:cjc137_1727"
    INDEX 01 00:09:67
  TRACK 16 AUDIO
    TITLE "0:"
    INDEX 01 00:10:66
  TRACK 17 AUDIO
    TITLE "5:cjc137_1728"
    INDEX 01 00:10:72
  TRACK 18 AUDIO
    TITLE "0:"
    INDEX 01 00:11:64
  TRACK 19 AUDIO
    TITLE "4:cjc137_1729"
    INDEX 01 00:12:73
  TRACK 20 AUDIO
    TITLE "0:"
    INDEX 01 00:14:19
  TRACK 21 AUDIO
    TITLE "6:cjc137_1730"
    INDEX 01 00:14:23
  TRACK 22 AUDIO
    TITLE "0:"
    INDEX 01 00:15:17
  TRACK 23 AUDIO
    TITLE "5:cjc137_1731"
    INDEX 01 00:15:23
  TRACK 24 AUDIO
    TITLE "0:"
    INDEX 01 00:16:40
  TRACK 25 AUDIO
    TITLE "4:cjc137_1732"
    INDEX 01 00:17:47
  TRACK 26 AUDIO
    TITLE "0:"
    INDEX 01 00:18:52
  TRACK 27 AUDIO
    TITLE "6:cjc137_1733"
    INDEX 01 00:18:58
  TRACK 28 AUDIO
    TITLE "0:"
    INDEX 01 00:20:00
  TRACK 29 AUDIO
    TITLE "5:cjc137_1734"
    INDEX 01 00:20:06
  TRACK 30 AUDIO
    TITLE "0:"
    INDEX 01 00:21:09
  TRACK 31 AUDIO
    TITLE "4:cjc137_1735"
    INDEX 01 00:22:17
  TRACK 32 AUDIO
    TITLE "0:"
    INDEX 01 00:23:22
  TRACK 33 AUDIO
    TITLE "6:cjc137_1736"
    INDEX 01 00:23:30
  TRACK 34 AUDIO
    TITLE "0:"
    INDEX 01 00:25:11
  TRACK 35 AUDIO
    TITLE "5:cjc137_1737"
    INDEX 01 00:25:21
  TRACK 36 AUDIO
    TITLE "0:"
    INDEX 01 00:26:24
  TRACK 37 AUDIO
    TITLE "4:cjc137_1738"
    INDEX 01 00:27:36
  TRACK 38 AUDIO
    TITLE "0:"
    INDEX 01 00:28:43
  TRACK 39 AUDIO
    TITLE "6:cjc137_1739"
    INDEX 01 00:28:51
  TRACK 40 AUDIO
    TITLE "0:"
    INDEX 01 00:29:56
  TRACK 41 AUDIO
    TITLE "5:cjc137_1740"
    INDEX 01 00:29:64
  TRACK 42 AUDIO
    TITLE "0:"
    INDEX 01 00:31:00
  TRACK 43 AUDIO
    TITLE "4:cjc137_1741"
    INDEX 01 00:32:07
  TRACK 44 AUDIO
    TITLE "0:"
    INDEX 01 00:33:21
  TRACK 45 AUDIO
    TITLE "6:cjc137_1742"
    INDEX 01 00:33:26
  TRACK 46 AUDIO
    TITLE "0:"
    INDEX 01 00:34:34
  TRACK 47 AUDIO
    TITLE "5:cjc137_1743"
    INDEX 01 00:34:42
  TRACK 48 AUDIO
    TITLE "0:"
    INDEX 01 00:35:53
  TRACK 49 AUDIO
    TITLE "4:cjc137_1744"
    INDEX 01 00:36:62
  TRACK 50 AUDIO
    TITLE "0:"
    INDEX 01 00:37:71
  TRACK 51 AUDIO
    TITLE "6:cjc137_1745"
    INDEX 01 00:38:02
  TRACK 52 AUDIO
    TITLE "0:"
    INDEX 01 00:39:03
  TRACK 53 AUDIO
    TITLE "5:cjc137_1746"
    INDEX 01 00:39:11
  TRACK 54 AUDIO
    TITLE "0:"
    INDEX 01 00:40:17
  TRACK 55 AUDIO
    TITLE "4:cjc137_1747"
    INDEX 01 00:41:26
  TRACK 56 AUDIO
    TITLE "0:"
    INDEX 01 00:42:35
  TRACK 57 AUDIO
    TITLE "6:cjc137_1748"
    INDEX 01 00:42:49
  TRACK 58 AUDIO
    TITLE "0:"
    INDEX 01 00:44:01
  TRACK 59 AUDIO
    TITLE "5:cjc137_1749"
    INDEX 01 00:44:09
  TRACK 60 AUDIO
    TITLE "0:"
    INDEX 01 00:45:16
  TRACK 61 AUDIO
    TITLE "4:cjc137_1750"
    INDEX 01 00:46:27
  TRACK 62 AUDIO
    TITLE "0:"
    INDEX 01 00:47:30
  TRACK 63 AUDIO
    TITLE "6:cjc137_1751"
    INDEX 01 00:47:36
  TRACK 64 AUDIO
    TITLE "0:"
    INDEX 01 00:48:59
  TRACK 65 AUDIO
    TITLE "5:cjc137_1752"
    INDEX 01 00:48:65
  TRACK 66 AUDIO
    TITLE "0:"
    INDEX 01 00:49:65
  TRACK 67 AUDIO
    TITLE "4:cjc137_1753"
    INDEX 01 00:50:74
  TRACK 68 AUDIO
    TITLE "0:"
    INDEX 01 00:52:02
  TRACK 69 AUDIO
    TITLE "6:cjc137_1754"
    INDEX 01 00:52:10
  TRACK 70 AUDIO
    TITLE "0:"
    INDEX 01 00:53:21
  TRACK 71 AUDIO
    TITLE "5:cjc137_1755"
    INDEX 01 00:53:27
  TRACK 72 AUDIO
    TITLE "0:"
    INDEX 01 00:54:30
  TRACK 73 AUDIO
    TITLE "4:cjc137_1756"
    INDEX 01 00:55:40
  TRACK 74 AUDIO
    TITLE "0:"
    INDEX 01 00:56:69
  TRACK 75 AUDIO
    TITLE "6:cjc137_1757"
    INDEX 01 00:57:01
  TRACK 76 AUDIO
    TITLE "0:"
    INDEX 01 00:58:15
  TRACK 77 AUDIO
    TITLE "5:cjc137_1758"
    INDEX 01 00:58:22
  TRACK 78 AUDIO
    TITLE "0:"
    INDEX 01 00:59:53
  TRACK 79 AUDIO
    TITLE "4:cjc137_1759"
    INDEX 01 01:00:60
  TRACK 80 AUDIO
    TITLE "0:"
    INDEX 01 01:01:72
  TRACK 81 AUDIO
    TITLE "6:cjc137_1760"
    INDEX 01 01:02:05
  TRACK 82 AUDIO
    TITLE "0:"
    INDEX 01 01:02:65
  TRACK 83 AUDIO
    TITLE "5:cjc137_1761"
    INDEX 01 01:02:73
  TRACK 84 AUDIO
    TITLE "0:"
    INDEX 01 01:04:11
